:FULLY-SPECIFIED
:FORCE-ALL-JOINTS-BE-3DOF
:DEGREES
340
root 9.54536 16.5357 11.6904 6.66932 8.07424 1.25758
lfemur 11.0958 5.69117 -18.3055
ltibia 15.8612 0 0
lfoot -2.48295 0.166198 0
ltoes -11.477 0 0
rfemur -35.2243 2.56815 19.9558
rtibia 37.6549 0 0
rfoot -9.32462 1.12078 0
rtoes -18.7812 0 0
lowerback -7.28632 -3.45305 -3.70194
upperback -1.2419 -4.36224 2.40427
thorax 3.3393 -2.23014 4.06587
lowerneck -19.175 -5.2301 -12.9939
upperneck 20.9652 -6.7332 13.2675
head 10.8445 -2.61088 5.99748
lclavicle 2.39808e-14 -2.51632e-14 0
lhumerus -31.5788 -31.9586 100.789
lradius 36.0546 0 0
lwrist 9.12262 0 0
lhand -8.89096 -24.1615 0
lfingers 7.12502 0 0
lthumb 17.0494 5.08197 0
rclavicle 2.39808e-14 -2.51632e-14 0
rhumerus -45.8734 9.13625 -83.186
rradius 33.6172 0 0
rwrist -16.99 0 0
rhand -28.9412 -24.7524 0
rfingers 7.12502 0 0
rthumb -2.29487 -54.7167 0
341
root 9.53775 16.5533 11.8289 6.65446 7.96434 1.12307
lfemur 9.61636 5.68972 -18.2897
ltibia 17.3031 0 0
lfoot -2.89225 0.543401 0
ltoes -11.1236 0 0
rfemur -34.5397 2.6865 20.2489
rtibia 37.4076 0 0
rfoot -9.66472 1.15897 0
rtoes -18.7457 0 0
lowerback -7.22982 -3.34179 -3.58058
upperback -1.22917 -4.22394 2.41287
thorax 3.30334 -2.15963 4.0224
lowerneck -19.2085 -5.26455 -12.9793
upperneck 20.9883 -6.7799 13.2481
head 10.8653 -2.6318 5.9805
lclavicle 2.29487e-14 -2.57159e-14 0
lhumerus -32.0603 -31.5212 100.693
lradius 35.812 0 0
lwrist 9.23157 0 0
lhand -9.07092 -24.0899 0
lfingers 7.12502 0 0
lthumb 16.8761 5.16694 0
rclavicle 2.29487e-14 -2.57159e-14 0
rhumerus -45.4899 9.42076 -83.2254
rradius 33.9545 0 0
rwrist -17.1697 0 0
rhand -29.006 -24.7369 0
rfingers 7.12502 0 0
rthumb -2.35746 -54.7004 0
342
root 9.53013 16.571 11.9674 6.63959 7.85444 0.988565
lfemur 8.1369 5.68826 -18.2738
ltibia 18.745 0 0
lfoot -3.30155 0.920604 0
ltoes -10.7703 0 0
rfemur -33.855 2.80485 20.5419
rtibia 37.1602 0 0
rfoot -10.0048 1.19716 0
rtoes -18.7101 0 0
lowerback -7.17332 -3.23052 -3.45921
upperback -1.21643 -4.08565 2.42147
thorax 3.26737 -2.08912 3.97893
lowerneck -19.242 -5.299 -12.9646
upperneck 21.0114 -6.82661 13.2287
head 10.8862 -2.65273 5.96353
lclavicle 2.19166e-14 -2.62687e-14 0
lhumerus -32.5419 -31.0837 100.597
lradius 35.5694 0 0
lwrist 9.34053 0 0
lhand -9.25089 -24.0183 0
lfingers 7.12502 0 0
lthumb 16.7028 5.25192 0
rclavicle 2.19166e-14 -2.62687e-14 0
rhumerus -45.1063 9.70528 -83.2648
rradius 34.2919 0 0
rwrist -17.3495 0 0
rhand -29.0708 -24.7214 0
rfingers 7.12502 0 0
rthumb -2.42005 -54.684 0
343
root 9.52251 16.5886 12.1059 6.62473 7.74454 0.854057
lfemur 6.65745 5.6868 -18.2579
ltibia 20.1869 0 0
lfoot -3.71085 1.29781 0
ltoes -10.4169 0 0
rfemur -33.1704 2.9232 20.8349
rtibia 36.9129 0 0
rfoot -10.3449 1.23535 0
rtoes -18.6746 0 0
lowerback -7.11682 -3.11925 -3.33784
upperback -1.20369 -3.94736 2.43008
thorax 3.23141 -2.0186 3.93546
lowerneck -19.2755 -5.33346 -12.9499
upperneck 21.0345 -6.87331 13.2093
head 10.9071 -2.67365 5.94655
lclavicle 2.08845e-14 -2.68214e-14 0
lhumerus -33.0234 -30.6463 100.5
lradius 35.3267 0 0
lwrist 9.44949 0 0
lhand -9.43085 -23.9467 0
lfingers 7.12502 0 0
lthumb 16.5295 5.3369 0
rclavicle 2.08845e-14 -2.68214e-14 0
rhumerus -44.7227 9.98979 -83.3042
rradius 34.6292 0 0
rwrist -17.5292 0 0
rhand -29.1356 -24.7059 0
rfingers 7.12502 0 0
rthumb -2.48264 -54.6677 0
344
root 9.5149 16.6062 12.2444 6.60987 7.63465 0.719549
lfemur 5.178 5.68535 -18.2421
ltibia 21.6289 0 0
lfoot -4.12014 1.67501 0
ltoes -10.0636 0 0
rfemur -32.4857 3.04155 21.128
rtibia 36.6655 0 0
rfoot -10.685 1.27354 0
rtoes -18.639 0 0
lowerback -7.06032 -3.00798 -3.21648
upperback -1.19096 -3.80907 2.43868
thorax 3.19545 -1.94809 3.89198
lowerneck -19.3091 -5.36791 -12.9353
upperneck 21.0575 -6.92002 13.19
head 10.9279 -2.69457 5.92958
lclavicle 1.98524e-14 -2.73741e-14 0
lhumerus -33.505 -30.2088 100.404
lradius 35.0841 0 0
lwrist 9.55844 0 0
lhand -9.61081 -23.8751 0
lfingers 7.12502 0 0
lthumb 16.3561 5.42187 0
rclavicle 1.98524e-14 -2.73741e-14 0
rhumerus -44.3391 10.2743 -83.3436
rradius 34.9666 0 0
rwrist -17.709 0 0
rhand -29.2004 -24.6904 0
rfingers 7.12502 0 0
rthumb -2.54524 -54.6513 0
345
root 9.50728 16.6239 12.3829 6.59501 7.52475 0.585041
lfemur 3.69854 5.68389 -18.2262
ltibia 23.0708 0 0
lfoot -4.52944 2.05221 0
ltoes -9.71021 0 0
rfemur -31.8011 3.15989 21.421
rtibia 36.4182 0 0
rfoot -11.0251 1.31173 0
rtoes -18.6035 0 0
lowerback -7.00382 -2.89672 -3.09511
upperback -1.17822 -3.67077 2.44728
thorax 3.15948 -1.87758 3.84851
lowerneck -19.3426 -5.40236 -12.9206
upperneck 21.0806 -6.96672 13.1706
head 10.9488 -2.71549 5.9126
lclavicle 1.88203e-14 -2.79268e-14 0
lhumerus -33.9865 -29.7714 100.308
lradius 34.8415 0 0
lwrist 9.6674 0 0
lhand -9.79077 -23.8035 0
lfingers 7.12502 0 0
lthumb 16.1828 5.50685 0
rclavicle 1.88203e-14 -2.79268e-14 0
rhumerus -43.9556 10.5588 -83.383
rradius 35.3039 0 0
rwrist -17.8887 0 0
rhand -29.2652 -24.6749 0
rfingers 7.12502 0 0
rthumb -2.60783 -54.635 0
346
root 9.49966 16.6415 12.5214 6.58015 7.41485 0.450533
lfemur 2.21909 5.68244 -18.2103
ltibia 24.5127 0 0
lfoot -4.93874 2.42942 0
ltoes -9.35686 0 0
rfemur -31.1164 3.27824 21.7141
rtibia 36.1708 0 0
rfoot -11.3652 1.34992 0
rtoes -18.5679 0 0
lowerback -6.94732 -2.78545 -2.97375
upperback -1.16549 -3.53248 2.45589
thorax 3.12352 -1.80706 3.80504
lowerneck -19.3761 -5.43682 -12.906
upperneck 21.1037 -7.01343 13.1512
head 10.9697 -2.73641 5.89562
lclavicle 1.77882e-14 -2.84795e-14 0
lhumerus -34.468 -29.334 100.211
lradius 34.5988 0 0
lwrist 9.77635 0 0
lhand -9.97073 -23.7319 0
lfingers 7.12502 0 0
lthumb 16.0095 5.59182 0
rclavicle 1.77882e-14 -2.84795e-14 0
rhumerus -43.572 10.8433 -83.4224
rradius 35.6412 0 0
rwrist -18.0685 0 0
rhand -29.33 -24.6594 0
rfingers 7.12502 0 0
rthumb -2.67042 -54.6186 0
347
root 9.49205 16.6592 12.6598 6.56529 7.30495 0.316025
lfemur 0.739634 5.68098 -18.1945
ltibia 25.9546 0 0
lfoot -5.34804 2.80662 0
ltoes -9.00351 0 0
rfemur -30.4318 3.39659 22.0071
rtibia 35.9235 0 0
rfoot -11.7053 1.38811 0
rtoes -18.5324 0 0
lowerback -6.89082 -2.67418 -2.85238
upperback -1.15275 -3.39419 2.46449
thorax 3.08755 -1.73655 3.76157
lowerneck -19.4096 -5.47127 -12.8913
upperneck 21.1268 -7.06013 13.1318
head 10.9905 -2.75734 5.87865
lclavicle 1.67561e-14 -2.90323e-14 0
lhumerus -34.9496 -28.8965 100.115
lradius 34.3562 0 0
lwrist 9.88531 0 0
lhand -10.1507 -23.6603 0
lfingers 7.12502 0 0
lthumb 15.8362 5.6768 0
rclavicle 1.67561e-14 -2.90323e-14 0
rhumerus -43.1884 11.1279 -83.4618
rradius 35.9786 0 0
rwrist -18.2482 0 0
rhand -29.3949 -24.6439 0
rfingers 7.12502 0 0
rthumb -2.73301 -54.6023 0
348
root 9.48443 16.6768 12.7983 6.55043 7.19506 0.181517
lfemur -0.73982 5.67952 -18.1786
ltibia 27.3966 0 0
lfoot -5.75734 3.18382 0
ltoes -8.65016 0 0
rfemur -29.7471 3.51494 22.3002
rtibia 35.6761 0 0
rfoot -12.0454 1.42631 0
rtoes -18.4968 0 0
lowerback -6.83432 -2.56292 -2.73101
upperback -1.14001 -3.25589 2.47309
thorax 3.05159 -1.66604 3.7181
lowerneck -19.4431 -5.50572 -12.8767
upperneck 21.1499 -7.10684 13.1124
head 11.0114 -2.77826 5.86167
lclavicle 1.5724e-14 -2.9585e-14 0
lhumerus -35.4311 -28.4591 100.019
lradius 34.1136 0 0
lwrist 9.99427 0 0
lhand -10.3307 -23.5887 0
lfingers 7.12502 0 0
lthumb 15.6628 5.76178 0
rclavicle 1.5724e-14 -2.9585e-14 0
rhumerus -42.8048 11.4124 -83.5012
rradius 36.3159 0 0
rwrist -18.428 0 0
rhand -29.4597 -24.6284 0
rfingers 7.12502 0 0
rthumb -2.79561 -54.5859 0
349
root 9.47681 16.6944 12.9368 6.53557 7.08516 0.047009
lfemur -2.21927 5.67807 -18.1627
ltibia 28.8385 0 0
lfoot -6.16664 3.56103 0
ltoes -8.29681 0 0
rfemur -29.0625 3.63329 22.5932
rtibia 35.4288 0 0
rfoot -12.3855 1.4645 0
rtoes -18.4613 0 0
lowerback -6.77782 -2.45165 -2.60965
upperback -1.12728 -3.1176 2.48169
thorax 3.01563 -1.59552 3.67463
lowerneck -19.4766 -5.54017 -12.862
upperneck 21.173 -7.15354 13.093
head 11.0323 -2.79918 5.8447
lclavicle 1.46919e-14 -3.01377e-14 0
lhumerus -35.9127 -28.0216 99.9226
lradius 33.871 0 0
lwrist 10.1032 0 0
lhand -10.5106 -23.5171 0
lfingers 7.12502 0 0
lthumb 15.4895 5.84675 0
rclavicle 1.46919e-14 -3.01377e-14 0
rhumerus -42.4212 11.6969 -83.5406
rradius 36.6533 0 0
rwrist -18.6077 0 0
rhand -29.5245 -24.6129 0
rfingers 7.12502 0 0
rthumb -2.8582 -54.5696 0
350
root 9.4692 16.7121 13.0753 6.5207 6.97526 -0.087499
lfemur -3.69873 5.67661 -18.1469
ltibia 30.2804 0 0
lfoot -6.57593 3.93823 0
ltoes -7.94346 0 0
rfemur -28.3778 3.75164 22.8863
rtibia 35.1814 0 0
rfoot -12.7256 1.50269 0
rtoes -18.4257 0 0
lowerback -6.72131 -2.34038 -2.48828
upperback -1.11454 -2.97931 2.4903
thorax 2.97966 -1.52501 3.63115
lowerneck -19.5102 -5.57463 -12.8474
upperneck 21.196 -7.20025 13.0737
head 11.0531 -2.8201 5.82772
lclavicle 1.36598e-14 -3.06904e-14 0
lhumerus -36.3942 -27.5842 99.8264
lradius 33.6283 0 0
lwrist 10.2122 0 0
lhand -10.6906 -23.4455 0
lfingers 7.12502 0 0
lthumb 15.3162 5.93173 0
rclavicle 1.36598e-14 -3.06904e-14 0
rhumerus -42.0377 11.9814 -83.5799
rradius 36.9906 0 0
rwrist -18.7875 0 0
rhand -29.5893 -24.5973 0
rfingers 7.12502 0 0
rthumb -2.92079 -54.5532 0
